<svg width="1063" height="1180" viewBox="0 0 1063 1180" fill="none" xmlns="http://www.w3.org/2000/svg">
<path d="M436.632 557.38C441.865 722.961 425.481 888.044 428.097 1053.69C428.097 1078.17 428.097 1102.65 426.602 1127.07C426.5 1129.06 426.819 1131.05 427.538 1132.91C428.257 1134.76 429.361 1136.45 430.776 1137.85L392.838 1136.54C346.677 1134.73 301.139 1134.92 255.415 1135.17C219.283 1135.17 182.965 1135.54 146.335 1134.67L108.958 1133.61C106.84 1127.38 105.781 1121.15 103.85 1114.92C91.8893 1058.86 91.0171 1002.79 88.3384 944.048C86.4073 894.211 83.8532 843.628 84.1647 793.417C85.2237 739.407 86.5319 686.394 88.9614 631.45C90.8303 604.663 90.0827 577.253 96.4368 551.089C97.7197 548.872 98.4065 546.361 98.4303 543.8C114.752 543.8 131.135 544.174 147.457 544.298C163.778 544.423 181.844 544.298 199.1 544.298C271.362 544.298 343.604 543.385 415.825 541.557C422.74 540.809 429.716 540.809 436.632 541.557C436.507 547.289 436.632 552.334 436.632 557.38ZM304.69 1102.22C306.774 1102.01 308.795 1101.38 310.632 1100.38C312.469 1099.37 314.084 1098 315.38 1096.36C316.677 1094.72 317.629 1092.83 318.178 1090.81C318.728 1088.78 318.864 1086.67 318.579 1084.6C318.294 1082.52 317.594 1080.53 316.519 1078.73C315.445 1076.93 314.019 1075.37 312.327 1074.14C310.635 1072.9 308.712 1072.02 306.672 1071.55C304.631 1071.07 302.517 1071.02 300.454 1071.38C276.949 1074.21 253.299 1075.67 229.624 1075.74C222.71 1075.74 215.546 1075.74 208.257 1075.74C189.568 1076.43 169.883 1077.05 153.437 1067.95C148.491 1021.29 145.954 974.402 145.837 927.477C145.837 923.347 144.196 919.385 141.276 916.465C138.355 913.544 134.394 911.903 130.263 911.903C126.133 911.903 122.172 913.544 119.251 916.465C116.33 919.385 114.689 923.347 114.689 927.477C114.191 973.202 117.866 1018.99 121.791 1064.53C120.483 1089.82 145.775 1103.21 167.89 1105.27C180.829 1106.52 193.824 1107.13 206.824 1107.07C222.834 1107.07 238.782 1106.39 254.729 1105.95C271.435 1105.55 288.11 1104.3 304.69 1102.22Z" fill="#EC7998"/>
<path d="M436.632 557.38C441.865 722.961 425.481 888.044 428.097 1053.69C428.097 1078.17 428.097 1102.65 426.602 1127.07C426.5 1129.06 426.819 1131.05 427.538 1132.91C428.257 1134.76 429.361 1136.45 430.776 1137.85L392.838 1136.54C346.677 1134.73 301.139 1134.92 255.415 1135.17C219.283 1135.17 182.965 1135.54 146.335 1134.67L108.958 1133.61C106.84 1127.38 105.781 1121.15 103.85 1114.92C91.8893 1058.86 91.0171 1002.79 88.3384 944.048C86.4073 894.211 83.8532 843.628 84.1647 793.417C85.2237 739.407 86.5319 686.394 88.9614 631.45C90.8303 604.663 90.0827 577.253 96.4368 551.089C97.7197 548.872 98.4065 546.361 98.4303 543.8C114.752 543.8 131.135 544.174 147.457 544.298C163.778 544.423 181.844 544.298 199.1 544.298C271.362 544.298 343.604 543.385 415.825 541.557C422.74 540.809 429.716 540.809 436.632 541.557C436.507 547.289 436.632 552.334 436.632 557.38ZM304.69 1102.22C306.774 1102.01 308.795 1101.38 310.632 1100.38C312.469 1099.37 314.084 1098 315.38 1096.36C316.677 1094.72 317.629 1092.83 318.178 1090.81C318.728 1088.78 318.864 1086.67 318.579 1084.6C318.294 1082.52 317.594 1080.53 316.519 1078.73C315.445 1076.93 314.019 1075.37 312.327 1074.14C310.635 1072.9 308.712 1072.02 306.672 1071.55C304.631 1071.07 302.517 1071.02 300.454 1071.38C276.949 1074.21 253.299 1075.67 229.624 1075.74C222.71 1075.74 215.546 1075.74 208.257 1075.74C189.568 1076.43 169.883 1077.05 153.437 1067.95C148.491 1021.29 145.954 974.402 145.837 927.477C145.837 923.347 144.196 919.385 141.276 916.465C138.355 913.544 134.394 911.903 130.263 911.903C126.133 911.903 122.172 913.544 119.251 916.465C116.33 919.385 114.689 923.347 114.689 927.477C114.191 973.202 117.866 1018.99 121.791 1064.53C120.483 1089.82 145.775 1103.21 167.89 1105.27C180.829 1106.52 193.824 1107.13 206.824 1107.07C222.834 1107.07 238.782 1106.39 254.729 1105.95C271.435 1105.55 288.11 1104.3 304.69 1102.22Z" fill="#EC7998"/>
<path d="M963.96 530.595C960.347 567.973 961.655 604.914 960.534 642.415C955.384 726.307 952.643 810.322 952.311 894.462C953.931 960.558 958.54 1026.53 956.485 1092.69C956.163 1108.3 954.936 1123.88 952.809 1139.35C895.248 1148.44 835.071 1149.25 776.389 1148.63C730.913 1148.32 685.064 1147.19 639.339 1145.64C640.274 1130.19 641.083 1114.49 641.27 1099.16C643.264 1034.75 637.906 970.338 638.529 906.049C639.401 838.646 643.575 771.367 644.323 703.963C644.883 649.953 641.333 596.005 639.277 541.995C652.11 541.497 664.88 540.687 677.651 540.313C773.025 538.258 868.275 528.851 963.96 530.595Z" fill="#EC7998"/>
<path d="M1024.51 318.544C1029.45 366.533 1031.53 414.772 1030.74 463.007C1030.31 475.466 1029.87 487.365 1029.06 499.512C1025.57 499.512 1021.9 499.512 1018.28 499.512C1013.45 499.919 1008.6 499.919 1003.77 499.512C908.332 496.585 813.207 503.499 717.895 507.486C691.232 507.985 664.632 509.604 637.97 510.539V507.424C637.409 445.565 639.091 382.522 631.117 321.223C634.531 320.473 638.029 320.179 641.521 320.351C678.898 317.921 716.711 319.728 754.275 319.853C797.882 320.289 842.049 319.853 885.905 318.98C932.191 318.544 978.352 317.859 1024.51 318.544ZM1012.86 431.797C1014.79 409.246 1016.66 385.699 1010.37 363.646C1007.82 355.236 1005.26 344.958 997.165 340.472C977.978 331.938 955.676 332.872 934.869 333.744C930.739 333.811 926.804 335.515 923.93 338.482C921.056 341.45 919.479 345.437 919.545 349.567C919.611 353.698 921.315 357.633 924.282 360.507C927.25 363.381 931.237 364.958 935.368 364.892C949.757 363.643 964.249 364.271 978.476 366.761C983.307 383.14 984.686 400.343 982.525 417.283C981.155 427.935 980.345 442.886 994.984 445.129H996.916C1000.75 445.26 1004.5 443.973 1007.44 441.513C1010.38 439.053 1012.31 435.593 1012.86 431.797Z" fill="#EC7998"/>
<path d="M436.072 510.164C432.758 509.817 429.418 509.817 426.104 510.164C298.025 512.967 169.634 515.895 41.6175 510.538L34.5158 510.351C33.1453 498.702 32.5224 486.99 31.9617 475.279C29.4699 427.374 35.2011 375.606 36.0732 326.144C95.1915 323.839 154.434 324.275 213.49 324.649C281.019 325.147 348.484 325.583 415.826 321.97C419.04 321.496 422.036 320.063 424.422 317.858H426.79C427.163 321.098 427.599 324.088 427.662 327.39C431.981 388.314 434.784 449.239 436.072 510.164Z" fill="#EC7998"/>
<path d="M607.382 896.39C606.012 960.99 611.619 1025.47 610.061 1090.07C610.061 1108.32 609.189 1126.45 608.068 1144.57C556.238 1142.71 504.284 1140.53 452.703 1138.35C461.487 1129.75 457.624 1110.13 458.933 1098.1C459.556 1033.19 458.185 968.279 460.428 903.492C468.838 737.225 471.89 570.835 463.044 404.506C461.861 378.529 460.802 352.552 458.683 326.637C476.394 330.803 494.416 333.512 512.569 334.735C518.798 335.109 525.713 335.296 532.254 335.296C555.171 335.451 578.025 332.9 600.343 327.696C602.835 350.683 604.891 373.794 605.825 396.906C605.264 497.201 611.245 595.067 612.864 694.865C612.615 762.268 608.691 829.298 607.382 896.39Z" fill="#F0BCD8"/>
<path d="M592.369 288.765C591.958 291.831 592.525 294.948 593.988 297.673C587.136 298.67 579.785 301.099 573.805 301.473C532.939 306.519 489.831 306.083 451.021 291.257C451.021 256.87 465.411 246.342 499.549 235.751C541.286 223.292 574.739 237.558 589.378 279.358C590.438 282.535 591.808 285.65 592.369 288.765Z" fill="#F0BCD8"/>
<path d="M464.103 215.628C448.223 223.078 435.225 235.529 427.1 251.074C420.713 241.597 413.744 232.526 406.231 223.913C376.142 190.772 335.214 170.028 293.601 155.389C256.224 141.684 216.728 128.726 176.361 129.536C167.558 130.001 158.89 131.895 150.695 135.143C159.045 105.024 173.934 77.1174 194.302 53.411C225.45 30.6732 271.548 23.5093 306.434 42.011C335.697 58.5761 362.028 79.8553 384.365 104.992C415.264 138.631 436.444 179.621 464.103 215.628Z" fill="#F0BCD8"/>
<path d="M380.006 241.482C393.275 255.187 402.681 272.006 415.078 286.397C375.894 284.092 338.143 274.934 299.458 264.78C258.218 252.321 214.674 242.852 176.549 221.796C160.539 212.701 147.395 200.055 144.28 188.406C144.434 187.165 144.434 185.909 144.28 184.668C144.28 182.675 144.28 180.744 144.28 178.813C146.585 170.776 155.68 164.111 174.556 160.685C176.985 160.685 179.415 160.685 181.844 160.685C200.729 161.311 219.46 164.304 237.599 169.593C288.12 184.855 342.006 202.672 380.006 241.482Z" fill="#F0BCD8"/>
<path d="M902.041 167.1C902.642 171.517 902.871 175.976 902.726 180.432C900.047 176.63 896.837 173.231 893.195 170.34C866.719 147.353 829.654 156.199 799.067 164.92C752.068 179.937 707.231 201.026 665.692 227.651C655.85 235.065 629.873 248.333 616.292 263.035C611.679 251.764 605.378 241.261 597.604 231.887C602.93 219.921 608.984 208.291 615.731 197.064C644.434 147.599 682.027 103.861 726.617 68.0507C780.129 24.4439 839.683 52.7883 877.808 101.192C890.408 121.224 898.663 143.677 902.041 167.1Z" fill="#F0BCD8"/>
<path d="M872.762 193.825C874.723 195.079 876.407 196.72 877.71 198.649C879.013 200.577 879.908 202.752 880.34 205.039C880.772 207.326 880.731 209.678 880.221 211.949C879.71 214.22 878.741 216.362 877.372 218.245C863.854 232.572 844.418 239.114 826.788 246.838C773.837 268.704 714.656 264.468 658.217 269.701C695.883 243.725 736.285 221.958 778.696 204.789C797.385 198.995 824.795 186.785 847.906 186.785C856.729 186.431 865.435 188.897 872.762 193.825Z" fill="#F0BCD8"/>
<path d="M293.601 155.141C335.215 170.029 376.143 190.711 406.231 223.666C413.743 232.263 420.693 241.335 427.038 250.826C435.259 235.221 448.396 222.763 464.415 215.38C436.694 179.374 415.576 138.383 384.615 104.681C362.072 79.5275 335.53 58.2688 306.061 41.7632C271.3 23.0746 225.077 30.4254 193.929 53.1632C173.561 76.8696 158.672 104.776 150.322 134.895C158.523 131.657 167.186 129.743 175.988 129.226H179.414C218.972 129.226 257.096 141.809 293.601 155.141ZM726.617 67.9272C681.965 103.702 644.309 147.42 615.544 196.879C608.809 208.112 602.755 219.741 597.416 231.702C605.204 241.066 611.507 251.571 616.105 262.849C629.747 248.148 655.662 234.879 665.505 227.466C707.061 200.831 751.919 179.742 798.941 164.734C829.466 156.013 866.532 147.167 893.007 170.154C896.65 173.046 899.859 176.444 902.539 180.246C902.683 175.791 902.454 171.331 901.853 166.915C898.498 143.495 890.264 121.042 877.683 101.006C852.765 69.36 818.627 46.373 783.056 46.373C762.284 46.7621 742.308 54.435 726.617 68.0518V67.9272ZM778.695 204.977C736.284 222.146 695.883 243.913 658.216 269.889C714.282 264.656 773.836 268.892 826.787 246.964C844.417 239.302 863.853 232.698 877.434 218.433C878.8 216.547 879.765 214.401 880.271 212.127C880.777 209.854 880.812 207.501 880.374 205.213C879.936 202.926 879.035 200.752 877.726 198.826C876.417 196.9 874.727 195.262 872.761 194.013C865.425 189.05 856.694 186.562 847.843 186.911C824.794 187.036 797.384 198.997 778.695 204.79V204.977ZM174.43 160.685C155.742 164.049 146.522 170.715 144.093 178.688C144.093 180.682 144.093 182.675 144.093 184.606C144.247 185.889 144.247 187.186 144.093 188.469C147.27 200.056 160.414 212.702 176.362 221.797C214.486 242.853 258.031 252.197 299.27 264.718C337.047 275.875 375.841 283.242 415.077 286.708C402.618 272.318 393.274 255.561 380.067 241.731C342.005 202.984 288.119 185.167 237.473 169.656C219.335 164.361 200.604 161.369 181.719 160.747C179.289 160.436 176.86 160.498 174.43 160.685ZM499.363 235.439C465.225 246.03 450.835 256.62 450.835 290.945C489.645 305.833 532.753 306.269 573.619 301.223C579.849 300.85 586.95 298.358 593.803 297.361C592.327 294.663 591.78 291.555 592.245 288.515C591.332 285.317 590.273 282.202 589.068 279.171C577.855 247.026 555.553 230.954 526.773 230.954C517.48 231.19 508.269 232.763 499.425 235.626L499.363 235.439ZM631.18 321.345C639.154 382.581 637.41 445.935 638.032 507.545V510.972C664.695 510.1 691.295 508.48 717.957 507.982C813.269 503.932 908.394 497.018 1003.83 500.008C1008.66 500.383 1013.51 500.383 1018.35 500.008C1021.96 500.008 1025.63 499.634 1029.12 500.008C1029.93 487.549 1030.37 475.65 1030.8 463.503C1031.59 415.247 1029.51 366.987 1024.58 318.977C978.414 318.355 932.253 318.977 886.093 319.725C842.486 320.41 798.318 321.096 754.463 320.597C717.085 320.597 679.272 318.666 641.708 321.158H639.777C636.927 321.003 634.068 321.128 631.242 321.532L631.18 321.345ZM36.0102 325.955C35.0757 375.106 29.3446 427.122 31.8987 475.09C32.4593 486.739 33.0823 498.513 34.4528 510.1C37.2561 510.1 39.8102 510.536 41.3676 510.66C169.385 516.018 297.775 513.09 425.855 510.224C429.169 509.909 432.507 509.909 435.822 510.224C434.514 449.362 431.835 388.437 427.599 327.823C427.599 324.709 427.1 321.594 426.727 318.23H424.359C421.926 320.319 418.941 321.661 415.763 322.092C348.421 325.705 280.956 325.207 213.49 324.771C190.44 324.314 167.35 324.086 144.217 324.086C108.148 324.086 72.1415 324.709 36.0725 326.141L36.0102 325.955ZM392.838 1136.54L430.714 1137.79C429.324 1136.38 428.241 1134.71 427.533 1132.86C426.825 1131.02 426.508 1129.05 426.602 1127.07C428.346 1102.65 428.097 1078.17 428.097 1053.69C425.481 888.046 441.927 722.776 436.694 557.382C436.694 552.274 436.694 547.228 436.694 542.182C429.779 541.433 422.803 541.433 415.887 542.182C343.687 543.926 271.424 544.985 199.162 544.985C181.906 544.985 164.712 544.985 147.519 544.985C130.325 544.985 114.814 544.985 98.4924 544.549C98.463 547.109 97.7766 549.619 96.499 551.837C90.2694 578.002 90.8924 605.411 89.0235 632.136C86.594 686.956 85.2858 739.969 84.2268 794.104C83.9153 844.314 86.5317 894.524 88.4006 944.734C91.0793 1003.54 91.9514 1059.3 103.912 1115.55C105.843 1121.78 106.902 1128.01 109.02 1134.24C121.479 1134.55 133.938 1134.86 146.398 1135.3C183.027 1136.11 219.345 1135.98 255.539 1135.79C270.365 1135.79 285.254 1135.79 300.08 1135.79C330.854 1134.98 361.69 1135.3 392.838 1136.54ZM463.169 405.07C472.015 571.336 468.963 737.789 460.553 903.993C458.373 968.843 459.681 1033.75 459.058 1098.67C457.625 1110.63 461.487 1130.25 452.828 1138.91C504.471 1140.78 556.363 1143.02 608.193 1145.14C609.314 1126.95 610.186 1108.82 610.186 1090.63C611.806 1026.03 606.137 961.554 607.508 896.954C608.816 829.862 612.803 762.832 613.114 695.677C611.495 596.005 605.514 498.014 606.137 397.719C605.141 374.607 603.085 351.496 600.593 328.446C578.278 333.675 555.423 336.247 532.504 336.109C526.275 336.109 519.36 336.109 512.819 335.548C494.666 334.324 476.644 331.616 458.933 327.45C460.989 352.804 461.986 378.781 463.169 405.07ZM677.465 540.562C664.633 540.562 651.924 541.746 639.154 542.182C641.147 596.192 644.698 650.14 644.137 704.15C643.39 771.553 639.216 838.832 638.344 906.174C637.721 970.649 643.078 1035.06 641.147 1099.29C641.147 1114.8 640.088 1130.44 639.154 1145.76C685.065 1147.32 730.915 1148.38 776.204 1148.75C834.886 1149.31 895.063 1148.75 952.624 1139.47C954.72 1124 955.947 1108.42 956.299 1092.81C958.293 1026.65 953.745 960.62 952.126 894.587C952.126 810.529 954.867 726.514 960.349 642.54C961.47 605.162 960.349 567.785 963.713 530.719C955.552 530.719 947.391 530.719 939.293 530.719C852.079 530.346 764.866 538.444 677.465 540.251V540.562ZM770.41 1179.96H770.846C622.085 1178.96 472.14 1168.87 323.628 1166.38C252.86 1166.69 182.031 1167.38 111.325 1165.2C108.688 1167.42 105.368 1168.68 101.919 1168.75C101.297 1168.81 100.671 1168.81 100.05 1168.75C62.6726 1162.08 61.1152 1009.77 58.3119 975.072C51.6152 855.309 51.6152 735.266 58.3119 615.503C60.866 592.08 58.3119 566.041 66.5349 543.739L53.266 543.116C39.8725 541.87 25.3577 543.116 13.0855 536.887C10.6407 535.383 8.6488 533.246 7.32158 530.701C5.99436 528.156 5.38137 525.299 5.54774 522.434C-4.23263 469.109 1.43625 413.23 3.67888 359.22C4.42642 346.761 5.48544 334.302 5.17397 321.843C5.02395 319.898 5.19228 317.941 5.67233 316.05C4.84144 313.721 4.58398 311.226 4.92176 308.777C5.25955 306.327 6.18262 303.996 7.61281 301.979C9.043 299.962 10.9382 298.319 13.1379 297.19C15.3375 296.061 17.7769 295.478 20.2494 295.492C83.0432 292.19 146.024 292.689 208.817 293.25C234.857 293.25 260.959 293.748 286.936 293.686C253.109 284.341 219.781 273.128 187.263 261.417C155.742 248.023 119.548 226.967 112.633 190.213C111.382 184.466 111.382 178.517 112.633 172.77C112.633 145.547 122.788 117.701 132.755 93.0322C141.918 71.723 154.085 51.8358 168.886 33.9762C196.732 7.37613 238.345 -1.28292 275.723 0.149868C322.507 5.63186 359.884 38.3369 393.461 68.6748C432.645 106.924 458.497 156.2 491.078 199.495C492.417 200.926 493.511 202.568 494.317 204.354C509.613 200.62 525.394 199.275 541.101 200.367C552.212 201.424 562.964 204.866 572.622 210.459L573.931 207.843C584.992 186.013 597.609 165.007 611.682 144.987C650.118 94.8388 695.531 37.5271 758.2 17.5926C789.949 11.8281 822.708 17.9719 850.21 34.8484C876.125 51.7927 900.607 73.9076 914.25 102.19C924.217 121.314 954.057 206.721 913.876 204.229C913.092 204.059 912.322 203.83 911.571 203.544C911.946 207.002 911.946 210.49 911.571 213.948C909.08 240.298 883.912 254.564 862.669 265.154C840.46 276.535 816.701 284.595 792.151 289.076H797.695C830.463 289.387 863.355 289.076 896.184 288.079C939.791 287.207 983.398 286.335 1027 287.768C1029.27 285.361 1032.22 283.724 1035.46 283.09C1038.71 282.455 1042.06 282.855 1045.06 284.231C1048.07 285.608 1050.56 287.893 1052.19 290.763C1053.83 293.633 1054.52 296.943 1054.17 300.227C1062.06 370.266 1064.14 440.838 1060.4 511.221C1061 513.558 1061.05 516.004 1060.54 518.363C1060.03 520.722 1058.98 522.93 1057.46 524.811C1055.95 526.693 1054.02 528.195 1051.83 529.199C1049.63 530.203 1047.23 530.681 1044.82 530.595C1043.73 530.593 1042.64 530.468 1041.58 530.221C1039.82 530.928 1037.93 531.268 1036.04 531.218H995.421C995.391 531.57 995.391 531.924 995.421 532.277C991.808 570.526 993.178 607.903 991.87 644.408C988.07 711.687 984.831 779.029 984.332 846.495C981.778 929.846 991.06 1013.13 987.883 1096.49C987.319 1115.01 985.655 1133.48 982.9 1151.8C983.107 1154.18 982.832 1156.58 982.09 1158.84C981.489 1162.63 979.536 1166.08 976.593 1168.54C973.651 1171 969.916 1172.31 966.08 1172.24C963.536 1172.27 961.027 1171.65 958.791 1170.43C954.119 1170.99 949.509 1171.43 945.647 1172.24C898.539 1178.09 851.078 1180.63 803.614 1179.84C792.65 1179.84 781.499 1179.77 770.41 1179.65V1179.96Z" fill="#A4020F"/>
<path d="M168.201 1105.45C146.086 1103.46 120.856 1090.07 122.102 1064.78C118.178 1019.18 114.502 973.389 115.063 927.726C115.063 923.596 116.704 919.635 119.624 916.714C122.545 913.793 126.506 912.152 130.637 912.152C134.767 912.152 138.728 913.793 141.649 916.714C144.57 919.635 146.21 923.596 146.21 927.726C146.274 974.63 148.79 1021.5 153.748 1068.14C170.194 1077.3 189.63 1076.61 208.63 1075.99C215.857 1075.99 223.021 1075.49 229.935 1075.99C253.61 1075.92 277.26 1074.46 300.765 1071.63C302.828 1071.27 304.942 1071.32 306.983 1071.8C309.023 1072.27 310.946 1073.15 312.638 1074.38C314.33 1075.62 315.756 1077.18 316.83 1078.98C317.905 1080.78 318.605 1082.77 318.89 1084.85C319.175 1086.92 319.039 1089.03 318.489 1091.05C317.94 1093.08 316.988 1094.96 315.691 1096.61C314.395 1098.25 312.78 1099.62 310.943 1100.63C309.106 1101.63 307.085 1102.26 305.001 1102.46C288.467 1104.63 271.833 1105.96 255.165 1106.45C239.217 1106.89 223.27 1107.51 207.26 1107.51C194.213 1107.51 181.175 1106.83 168.201 1105.45Z" fill="#A4020F"/>
<path d="M995.36 445.127C980.596 442.884 981.405 427.871 982.901 417.281C985.059 400.321 983.68 383.098 978.851 366.697C964.617 364.269 950.134 363.642 935.743 364.828C931.613 364.894 927.625 363.317 924.658 360.443C921.69 357.569 919.986 353.634 919.92 349.503C919.854 345.373 921.431 341.385 924.305 338.418C927.179 335.451 931.114 333.746 935.245 333.68C955.864 332.871 978.104 331.936 997.54 340.471C1005.64 345.205 1008.19 355.235 1010.75 363.644C1016.98 385.697 1015.17 409.245 1013.3 431.796C1012.77 435.554 1010.89 438.992 1008.02 441.468C1005.14 443.944 1001.46 445.288 997.665 445.251L995.36 445.127Z" fill="#A4020F"/>
</svg>
