<svg width="930" height="1208" viewBox="0 0 930 1208" fill="none" xmlns="http://www.w3.org/2000/svg">
<path d="M897.069 618.287C902.115 691.235 881.62 765.242 847.232 829.157C827.747 857.813 806.744 885.408 784.314 911.823C726.754 982.279 658.375 1043.15 581.73 1092.17C555.939 1109.98 530.772 1128.8 504.172 1145.37C492.585 1152.72 480.749 1159.57 469.037 1166.67C413.283 1123.88 355.099 1084.88 300.217 1040.77C265.83 1011.62 229.574 984.148 198.738 951.007C148.902 899.052 94.2685 849.901 58.9471 786.547C12.4747 696.094 23.0649 574.68 101.059 504.66C148.341 457.378 220.915 442.365 284.581 459.87C316.227 469.775 343.138 490.021 368.617 510.516C387.306 526.526 406.991 541.103 424.06 558.733C433.356 569.32 441.404 580.942 448.044 593.369C446.86 595.549 445.801 597.854 444.805 600.097C440.382 620.281 470.408 627.694 475.516 607.572C493.892 578.334 515.798 551.47 540.739 527.585C602.287 473.824 696.478 441.929 774.222 477.749C834.026 507.526 890.029 546.211 897.069 618.287ZM832.219 801.747C832.944 798.86 832.835 795.826 831.907 792.998C830.979 790.17 829.269 787.662 826.974 785.765C824.68 783.868 821.896 782.66 818.943 782.28C815.991 781.901 812.991 782.365 810.291 783.619C806.745 785.294 803.995 788.29 802.629 791.967C796.211 804.286 789.055 816.206 781.199 827.662C767.806 847.347 752.793 867.469 736.534 887.403C722.953 904.036 709.373 920.731 695.169 936.866C687.507 947.83 661.219 963.03 676.481 979.04C677.844 980.478 679.487 981.622 681.307 982.404C683.128 983.186 685.089 983.589 687.071 983.587C689.904 983.525 692.683 982.806 695.191 981.487C697.699 980.168 699.867 978.286 701.524 975.987C718.406 958.794 733.73 940.105 749.055 921.541C779.144 883.541 810.914 845.977 832.157 801.747H832.219ZM530.71 973.745C550.146 971.377 559.552 959.23 550.582 940.666C537.188 904.347 526.536 867.095 514.575 830.278C553.759 788.354 538.995 713.786 481.559 697.901C394.345 679.212 360.893 789.101 419.263 843.609C419.263 871.58 413.034 899.239 408.299 926.774C406.493 939.544 402.07 952.439 402.07 965.397C402.472 967.567 403.33 969.627 404.586 971.442C405.841 973.257 407.467 974.786 409.356 975.927C411.245 977.069 413.354 977.797 415.545 978.065C417.736 978.333 419.958 978.135 422.067 977.482C426.136 978.502 430.354 978.797 434.526 978.354C438.688 977.889 442.899 978.12 446.985 979.04C453.713 979.538 460.441 979.787 467.231 979.787C488.53 979.695 509.776 977.673 530.71 973.745ZM142.236 843.485C145.004 843.557 147.741 842.891 150.166 841.553C152.59 840.216 154.614 838.256 156.029 835.876C157.445 833.497 158.2 830.783 158.217 828.014C158.234 825.245 157.513 822.521 156.128 820.124C139.906 793.633 126.422 765.559 115.885 736.337C93.4587 667.002 106.852 584.212 152.203 526.838C166.22 517.742 163.603 497.372 145.974 496.126C115.387 500.86 84.239 584.399 80.1898 612.93C62.1241 694.599 86.4193 766.55 129.465 835.885C130.752 838.151 132.605 840.043 134.844 841.376C137.083 842.708 139.631 843.435 142.236 843.485Z" fill="#F0BCD8"/>
<path d="M754.475 386.298C754.475 387.98 754.475 389.725 754.475 391.469V392.777C754.475 393.4 754.475 394.023 754.475 394.646C754.475 400.253 754.039 405.984 753.727 411.715C753.229 420.249 752.606 428.784 751.921 437.069L743.635 435.263L741.144 434.764H740.77C740.418 434.794 740.063 434.794 739.711 434.764H738.901H738.091H737.094H735.412H734.727H733.98H733.481C715.911 432.143 698.084 431.704 680.406 433.456V432.148C681.216 425.046 681.714 417.882 681.838 410.78V409.971V409.597C681.838 403.367 681.839 397.574 681.527 391.593V389.102C681.558 388.874 681.558 388.644 681.527 388.416V386.298C681.527 385.925 681.527 385.489 681.527 385.052C681.562 384.888 681.562 384.718 681.527 384.554C681.527 384.554 681.527 383.993 681.527 383.682C681.527 381.938 681.527 380.131 681.029 378.325C680.53 376.518 681.029 375.334 680.53 373.839C680.495 373.675 680.495 373.505 680.53 373.341C680.53 372.095 680.156 370.725 680.032 369.479V368.482C679.617 365.284 679.118 362.107 678.537 358.951C670.065 295.846 652.061 232.491 610.012 183.34C606.959 179.665 603.782 176.052 600.792 172.563C600.615 172.427 600.467 172.258 600.356 172.065C595.373 166.52 590.389 161.35 585.343 156.429V156.117L583.287 154.124C582.987 153.909 582.715 153.658 582.477 153.376C581.854 152.815 581.356 152.255 580.733 151.756L580.172 151.196L579.113 150.261L577.494 148.766L571.389 143.346L570.89 142.91L570.205 142.35L567.9 140.356L560.612 134.625L559.864 134.002L559.241 133.566C552.595 128.673 545.691 124.14 538.559 119.986L536.628 118.428C533.949 116.933 531.271 115.5 528.53 114.192L526.412 113.196C473.461 87.9036 414.778 92.4512 351.985 133.691C312.116 160.104 286.574 202.652 265.83 244.701C253.06 276.222 251.44 310.36 249.26 344.374V344.81C249.26 346.492 249.26 348.174 249.26 349.856V351.226C249.26 351.6 249.26 352.036 249.26 352.41C249.26 354.154 249.26 355.898 249.26 357.643V363.872C249.26 364.557 249.26 365.305 249.26 366.052V366.8C249.27 366.924 249.27 367.049 249.26 367.174V367.61C249.685 386.516 252.192 405.318 256.735 423.676C228.087 420.346 199.067 422.46 171.203 429.905C170.892 428.721 170.643 427.6 170.394 426.417C170.423 426.189 170.423 425.959 170.394 425.731C169.895 423.364 169.397 420.997 168.961 418.63C168.961 418.194 168.961 417.695 168.961 417.197C168.961 417.197 168.961 416.636 168.961 416.387C168.931 416.285 168.931 416.177 168.961 416.076V415.203C168.961 414.144 168.649 413.085 168.525 412.026C168.555 411.425 168.555 410.822 168.525 410.22C168.525 409.597 168.525 408.912 168.525 408.226C168.525 407.603 168.525 407.043 168.525 406.42C167.715 397.387 167.279 388.292 167.154 379.134V374.961C167.184 331.25 174.619 287.859 189.145 246.632C189.643 245.324 190.079 244.078 190.515 242.832V242.396C190.515 241.711 190.951 241.088 191.2 240.403C191.383 240.066 191.529 239.711 191.636 239.344L192.01 238.347L192.384 237.288C192.619 236.759 192.827 236.218 193.007 235.668V235.294C195.436 229.065 198.115 222.835 200.981 216.606L201.479 215.422V215.111L201.853 214.301V213.678L202.227 212.806C202.974 211.248 203.722 209.629 204.532 208.071L207.771 201.842C209.64 198.166 211.571 194.491 213.564 190.878C213.552 190.733 213.552 190.587 213.564 190.442L214.873 188.199L215.869 186.393C215.99 186.11 216.136 185.839 216.305 185.583L217.24 183.963C217.24 183.963 217.8 182.966 218.112 182.468C241.099 142.91 275.922 112.697 311.243 83.9167C339.463 62.674 373.975 52.769 407.365 42.5526L414.903 40.746C417.644 40.1231 420.323 39.6247 423.064 39.1264H423.624L426.116 38.6903H426.801H427.798H429.667H430.352H431.66H432.159C445.013 35.1253 458.14 32.625 471.405 31.2148H471.903H480.064H484.113L488.349 31.5263H492.087H494.267H495.7H496.572H497.631H498.628H500.621H503.3C546.221 37.7559 586.713 55.8838 624.651 76.4413C658.042 97.4348 683.832 128.894 703.268 162.907C740.022 233.239 751.609 309.426 754.475 386.298Z" fill="#EC7998"/>
<path d="M732.857 433.64H733.604H734.29H735.972H736.968H737.778H738.588H739.647H740.021L742.575 434.138C745.316 434.72 748.057 435.343 750.798 436.007C751.546 427.722 752.169 419.188 752.667 410.653C752.667 404.922 753.228 399.191 753.414 393.584C753.414 392.961 753.414 392.338 753.414 391.715V390.407C753.414 388.663 753.414 386.981 753.414 385.237C750.487 308.24 738.962 232.052 702.395 163.839C684.08 130.885 658.289 99.737 624.899 78.5566C586.961 57.9991 546.469 40.1204 503.548 33.6416H500.869H498.876H497.879H496.82H495.948H494.515C493.767 33.6416 493.082 33.6416 492.335 33.6416H488.597L484.361 33.3302H480.312L471.902 31.2121H471.403C458.289 30.8455 445.167 31.5121 432.157 33.2056H431.721H430.351H429.79H427.921H426.924H426.239L423.747 33.6416H423.374C420.57 34.14 417.892 34.6384 415.151 35.2613L407.613 37.0679C374.098 48.0942 339.586 58.186 311.491 79.4287C276.045 108.209 241.222 138.422 218.048 178.042C217.737 178.478 217.488 179.039 217.176 179.475L216.242 181.095C216.071 181.372 215.926 181.664 215.806 181.967C215.437 182.527 215.104 183.109 214.809 183.711L213.501 186.016C213.523 186.181 213.523 186.349 213.501 186.514C211.507 190.128 209.576 193.803 207.707 197.478C206.586 199.596 205.527 201.777 204.468 203.708C203.658 205.265 202.91 206.885 202.163 208.505L201.789 209.377V209.937C201.789 209.937 201.789 210.498 201.478 210.747C201.478 210.747 201.478 210.747 201.478 211.059L200.979 212.242C198.114 218.472 195.435 224.701 193.005 231.305V231.616L192.445 233.236C192.445 233.61 192.133 233.921 192.009 234.295L191.635 235.292L191.199 236.413C191.199 237.036 190.763 237.659 190.514 238.282V238.78L189.205 242.518C174.711 283.753 167.276 327.138 167.215 370.846C167.215 372.217 167.215 373.587 167.215 375.02C167.215 384.115 167.714 393.273 168.523 402.368V404.112V406.106C168.554 406.707 168.554 407.31 168.523 407.912C168.523 408.971 168.835 410.03 169.022 411.089C168.987 411.358 168.987 411.63 169.022 411.899C168.993 412.022 168.993 412.15 169.022 412.273C169.052 412.563 169.052 412.855 169.022 413.145C169.022 413.643 169.022 414.142 169.022 414.578C169.458 416.945 169.956 419.312 170.455 421.679C170.484 421.907 170.484 422.137 170.455 422.365C170.455 423.548 171.015 424.67 171.202 425.853C198.954 418.272 227.887 415.989 256.484 419.125C252.349 402.237 249.908 384.979 249.196 367.607V367.233C249.196 367.233 249.196 367.233 249.196 366.859V363.932C249.196 362.25 249.196 360.505 249.196 358.886V357.64C249.196 355.896 249.196 354.151 249.196 352.407C249.196 352.033 249.196 351.597 249.196 351.223V349.853C249.196 348.171 249.196 346.489 249.196 344.869V344.433C251.376 310.669 252.996 276.531 265.766 244.761C286.573 202.649 312.114 160.101 351.796 133.501C414.092 92.2616 473.085 87.714 526.223 112.944L528.404 114.003C531.145 115.311 533.823 116.744 536.502 118.239L537.436 118.799C544.629 122.886 551.558 127.422 558.181 132.38L558.804 132.816L559.614 133.377C562.043 135.245 564.473 137.114 566.902 139.108L569.207 141.039L569.955 141.599L570.391 142.036L573.069 144.403L574.689 145.836L575.748 146.77L576.309 147.331L578.053 148.888L578.863 149.636L580.919 151.567L581.292 151.878C586.338 156.862 591.384 162.095 596.306 167.577L596.742 168.075C599.856 171.564 602.971 175.177 605.961 178.852C648.322 228.003 666.326 291.358 674.486 354.463C675.068 357.661 675.566 360.838 675.981 363.994C676.008 364.326 676.008 364.659 675.981 364.991C675.981 366.361 675.981 367.607 676.48 368.915C676.48 368.915 676.48 369.227 676.48 369.414C676.48 370.909 676.853 372.404 676.978 373.899C677.103 375.394 677.352 377.45 677.476 379.256C677.476 379.256 677.476 379.879 677.476 380.128C677.503 380.293 677.503 380.462 677.476 380.627C677.507 381.041 677.507 381.458 677.476 381.873V382.496C677.511 382.723 677.511 382.954 677.476 383.181C677.476 383.181 677.476 384.863 677.476 385.673C677.788 391.902 677.912 397.633 677.788 403.614V404.797C677.788 411.899 677.165 419.063 676.355 426.165V427.473C683.581 426.788 690.683 426.476 697.785 426.476C709.656 427.877 721.388 430.273 732.857 433.64ZM432.593 131.881C369.239 146.022 332.921 184.832 302.894 239.839C292.672 257.694 286.305 277.494 284.206 297.961C280.717 327.738 277.976 360.256 281.527 389.473C283.354 403.198 286.419 416.73 290.685 429.902C296.914 431.522 302.521 433.453 308.252 435.571C337.653 448.736 364.944 466.181 389.236 487.339C417.393 510.886 447.295 533.375 467.23 564.336C474.331 555.054 481.869 546.021 488.971 536.988C521.012 497.631 562.965 467.527 610.509 449.775C622.667 444.884 635.157 440.866 647.886 437.752C647.263 427.286 651.562 414.204 650.565 404.797C648.353 358.092 639.48 311.943 624.214 267.748C596.928 203.957 534.135 128.393 460.003 128.393C450.757 128.402 441.548 129.574 432.593 131.881ZM101.058 504.657C23.0637 574.677 12.4735 696.09 58.9459 786.543C94.2673 849.898 149.15 899.111 198.737 951.065C229.884 984.144 265.829 1011.62 300.216 1040.83C354.786 1084.88 413.282 1123.87 468.849 1166.67C480.561 1159.63 492.459 1152.72 503.984 1145.36C530.584 1128.79 555.751 1109.98 581.542 1092.16C658.187 1043.15 726.566 982.275 784.126 911.819C806.634 885.42 827.7 857.825 847.231 829.153C881.743 765.238 902.238 691.231 897.068 618.284C890.09 546.208 834.087 507.522 774.283 477.683C696.477 441.925 602.41 473.821 540.8 527.519C515.816 551.519 493.888 578.51 475.515 607.88C470.407 627.939 440.38 620.339 444.803 600.342C445.8 598.038 446.921 595.857 448.043 593.615C441.395 581.212 433.348 569.611 424.059 559.041C406.99 541.349 387.18 526.772 368.616 510.762C343.137 490.267 316.226 470.021 284.58 460.116C267.454 455.514 249.797 453.19 232.065 453.201C183.32 452.41 136.235 470.904 101.058 504.657ZM444.492 1200.31C443.209 1198.24 442.434 1195.9 442.228 1193.47C442.022 1191.05 442.392 1188.61 443.308 1186.35C390.233 1145.74 333.481 1107.74 281.714 1065.88C255.799 1044.01 229.386 1022.83 204.094 1000.28C180.235 977.852 158.307 953.37 135.008 930.446C89.1591 882.478 40.6933 832.766 17.3949 769.35C-23.907 653.169 8.29974 523.345 114.451 454.82C123.139 449.308 132.24 444.476 141.674 440.368C119.559 341.069 147.53 226.633 203.596 143.032C223.655 114.439 250.13 91.078 276.045 68.2779C301.026 46.0499 330.524 29.4945 362.511 19.7498C456.079 -18.6242 556.935 2.49397 641.657 52.3925C713.109 98.1173 753.788 179.288 770.795 260.397C781.51 313.971 788.611 369.04 783.939 423.735C783.735 431.559 783.027 439.362 781.821 447.096C803.748 456.089 824.399 467.922 843.244 482.293C938.992 541.972 941.546 646.316 914.074 745.241C905.442 776.738 893.629 807.275 878.815 836.38C861.442 864.631 841.884 891.48 820.32 916.678C768.49 980.718 710.181 1040.4 642.716 1088.12C590.761 1122.81 541.112 1160.94 486.977 1192.27C477.82 1196.88 466.794 1207.47 456.764 1207.54C454.272 1207.47 451.838 1206.78 449.69 1205.52C447.542 1204.25 445.753 1202.46 444.492 1200.31Z" fill="#A4020F"/>
<path d="M676.169 979.098C661.218 963.025 687.444 947.95 694.858 936.861C709.061 920.727 722.641 904.032 736.222 887.399C752.481 867.464 767.369 847.343 780.887 827.658C788.743 816.202 795.899 804.282 802.317 791.962C803.683 788.286 806.433 785.29 809.979 783.615C812.679 782.361 815.679 781.896 818.631 782.276C821.584 782.656 824.368 783.864 826.662 785.761C828.957 787.658 830.667 790.165 831.595 792.994C832.523 795.822 832.632 798.855 831.907 801.743C810.665 845.973 778.894 883.537 748.494 921.537C733.169 940.225 717.844 958.914 700.962 975.983C699.302 978.273 697.133 980.147 694.624 981.455C692.116 982.763 689.338 983.47 686.51 983.521C682.616 983.462 678.901 981.873 676.169 979.098Z" fill="#A4020F"/>
<path d="M447.232 979.038C443.15 978.093 438.938 977.84 434.773 978.291C430.602 978.803 426.372 978.507 422.314 977.419C420.219 978.094 418.006 978.319 415.818 978.08C413.631 977.842 411.519 977.144 409.619 976.032C407.72 974.921 406.077 973.421 404.797 971.631C403.517 969.841 402.629 967.802 402.192 965.645C401.694 952.688 406.304 939.792 408.422 926.96C413.156 899.487 419.572 871.828 419.386 843.858C361.202 789.349 394.779 679.522 481.681 698.149C539.18 714.034 553.881 788.602 514.698 830.526C526.658 867.281 537.311 904.596 550.704 940.914C559.675 959.602 550.268 971.563 530.832 973.993C510.007 977.969 488.865 980.054 467.665 980.222C460.999 979.724 453.96 979.537 447.232 979.038Z" fill="#A4020F"/>
<path d="M129.278 835.821C86.4813 766.299 62.3107 694.535 80.0648 612.866C84.114 584.397 115.199 500.734 145.786 496.124C163.603 497.308 166.282 517.741 152.016 526.836C106.603 584.21 93.3337 666.938 115.698 736.273C126.196 765.531 139.682 793.629 155.941 820.122C157.308 822.527 158.013 825.252 157.983 828.019C157.954 830.785 157.191 833.494 155.772 835.869C154.353 838.245 152.329 840.201 149.908 841.538C147.486 842.876 144.752 843.547 141.986 843.483C139.387 843.41 136.851 842.666 134.624 841.324C132.397 839.981 130.556 838.085 129.278 835.821Z" fill="#A4020F"/>
</svg>
