<svg width="1154" height="780" viewBox="0 0 1154 780" fill="none" xmlns="http://www.w3.org/2000/svg">
<path d="M1119.56 55.0923C1119.25 64.312 1119.12 73.7809 1118.38 82.6891C1116.01 120.066 1114.58 157.755 1114.89 195.319C1112.4 315.611 1118.19 434.222 1116.44 554.763C1114.95 601.049 1115.26 647.334 1113.89 693.62C1072.15 652.318 1024.19 617.308 981.015 577.501C934.252 536.677 888.922 494.275 845.024 450.294C813.378 418.586 782.044 386.254 746.535 358.844C769.896 338.1 792.821 316.982 816.244 296.549C878.165 244.906 937.844 190.647 1001.76 141.184C1037.39 114.024 1074.77 89.2301 1110.46 62.194C1113.37 59.6722 1116.41 57.3018 1119.56 55.0923Z" fill="#F0BCD8"/>
<path d="M1051.66 679.169C1072.5 695.69 1091.9 713.946 1109.65 733.74C1071.84 728.631 1034.4 721.28 996.402 717.667C946.566 713.431 896.044 712.746 845.772 712.933C674.522 710.815 503.147 714.179 332.209 721.966C248.297 726.887 164.011 731.435 80.6603 740.218C74.8668 740.841 69.198 741.526 63.4668 742.274C93.3686 712.933 126.385 680.975 156.287 650.7C232.744 576.901 309.575 503.413 386.78 430.237C401.98 415.846 417.117 401.269 431.508 386.069C448.639 414.289 473.059 438.273 496.98 460.824C518.285 483.125 539.466 505.489 561.082 527.355C572.295 537.26 581.203 552.834 595.843 558.067C596.818 558.128 597.796 558.128 598.771 558.067C620.387 558.067 642.378 522.683 655.709 508.23C682.807 472.099 712.211 428.991 728.47 383.64C743.981 395.725 758.683 408.558 772.949 422.2C828.08 475.899 881.592 531.342 939.651 581.926C976.405 615.191 1013.97 647.336 1051.66 679.169Z" fill="#F0BCD8"/>
<path d="M411.137 362.52C394.13 380.586 376.064 397.841 357.999 414.848C275.271 494.711 190.923 572.58 109.627 653.689C88.073 675.18 64.1516 697.918 41.4761 720.656C43.0335 699.725 43.0958 678.794 42.7843 657.8C42.2859 624.347 42.7843 590.832 43.1581 557.38C46.9581 400.396 30.0761 244.221 31.4466 86.5516C31.4466 75.2139 31.4466 63.8761 31.8203 52.4761C112.119 113.526 184.07 185.165 262.189 249.329C310.281 288.7 362.11 324.084 411.137 362.52Z" fill="#F0BCD8"/>
<path d="M998.644 49.9887C1024.99 49.9887 1051.28 48.8673 1077.57 47.4968C1028.11 84.8741 975.221 118.514 928.562 159.628C865.519 213.763 801.23 266.465 740.118 322.78C738.78 307.641 733.016 293.23 723.544 281.344C714.073 269.458 701.314 260.622 686.856 255.937C647.609 243.478 607.055 268.396 581.327 296.803C569.321 281.478 553.395 269.682 535.236 262.664C517.077 255.646 497.358 253.666 478.166 256.934C446.396 263.911 415.186 290.76 411.635 323.528C361.3 284.095 307.477 248.275 259.011 206.163C192.044 148.665 128.253 87.3659 58.1709 33.605C97.3547 35.5361 136.352 38.7132 175.411 41.5788C278.634 49.5526 382.169 47.1231 485.579 47.8083C653.091 46.9985 820.604 48.4313 988.054 49.6772L998.644 49.9887Z" fill="#F0BCD8"/>
<path d="M475.736 290.323C479.972 288.83 484.359 287.807 488.818 287.27C477.667 294.123 466.952 302.345 459.041 306.644C455.19 309.646 451.176 312.433 447.018 314.991C453.264 303.544 463.477 294.771 475.736 290.323Z" fill="#EC7998"/>
<path d="M475.175 333.432C468.946 343.461 460.411 353.055 454.182 363.458C452.25 359.845 450.444 356.107 448.824 352.307C457.11 345.392 466.329 339.599 475.175 333.432Z" fill="#EC7998"/>
<path d="M532.738 361.465C521.338 380.153 506.262 397.534 499.223 418.278C499.223 418.777 499.223 419.213 499.223 419.711C491.561 412.111 484.023 404.262 477.046 395.976C496.669 387.317 514.049 372.74 532.738 361.465Z" fill="#EC7998"/>
<path d="M537.534 298.421C543.328 302.009 548.539 306.463 552.984 311.628C538.282 320.91 523.705 330.317 509.377 339.848C517.039 328.759 534.295 312.998 537.534 298.421Z" fill="#EC7998"/>
<path d="M662.874 284.155C657.33 288.454 652.16 292.752 647.55 295.742C620.383 316.609 594.465 339.053 569.93 362.959C576.159 351.995 586.563 342.277 593.353 331.188C594.794 329.668 596.068 327.997 597.153 326.205C613.536 306.395 636.399 286.709 662.874 284.155Z" fill="#EC7998"/>
<path d="M703.924 308.325C708.376 316.707 710.158 326.249 709.033 335.673H707.101C696.698 337.542 689.534 346.325 681.373 352.306C656.455 372.614 632.222 393.047 608.052 413.916C636.022 377.535 671.095 347.322 700.685 312.374L703.924 308.325Z" fill="#EC7998"/>
<path d="M671.22 430.86C664.243 442.758 656.705 454.408 648.669 465.683C644.86 466.557 641.38 468.503 638.64 471.29C649.354 457.709 660.318 444.253 671.22 430.86Z" fill="#EC7998"/>
<path d="M619.391 445.314C605.125 463.504 591.732 482.317 578.401 501.38L566.315 488.921C569.243 486.865 571.984 484.56 574.85 482.691C590.05 470.357 604.689 457.835 619.391 445.314Z" fill="#EC7998"/>
<path d="M589.302 387.502C574.781 406.087 561.404 425.539 549.246 445.749C546.381 450.919 543.017 455.84 539.777 461.011C533.548 454.781 527.318 447.929 520.777 441.45C548.873 432.791 567.437 405.942 589.302 387.502Z" fill="#EC7998"/>
<path d="M475.8 290.322C463.494 294.85 453.262 303.71 447.019 315.241C451.255 312.5 455.367 309.821 459.042 306.893C467.016 302.595 477.731 294.434 488.882 287.519C484.432 287.975 480.045 288.915 475.8 290.322ZM259.012 206.161C307.478 248.273 361.301 284.093 411.636 323.713C415.186 290.945 446.459 264.096 478.229 257.119C497.412 253.863 517.118 255.849 535.265 262.867C553.412 269.884 569.327 281.673 581.328 296.988C606.994 268.706 647.61 243.601 686.794 256.122C701.27 260.797 714.044 269.639 723.519 281.54C732.993 293.441 738.746 307.872 740.057 323.027C801.168 266.962 865.457 213.948 928.5 159.814C975.159 118.574 1028.17 85.0592 1077.51 47.682C1051.22 49.0525 1024.93 50.1738 998.645 50.1738H987.992C820.542 48.9279 653.03 47.4951 485.518 48.3049C382.108 47.3082 278.573 49.8 175.412 42.0754C136.29 39.2098 97.2309 35.8459 58.1094 34.0393C128.192 87.3641 192.044 148.663 259.012 206.161ZM509.252 339.785C523.705 330.191 538.344 320.785 552.859 311.565C548.409 306.422 543.199 301.989 537.41 298.421C534.295 312.998 517.039 328.759 509.252 339.785ZM597.151 326.267C596.05 328.084 594.755 329.776 593.289 331.313C586.499 342.339 576.407 352.057 569.928 362.959C594.564 339.043 620.586 316.599 647.86 295.742C652.469 292.752 657.702 288.454 663.184 284.093C636.397 286.709 613.597 306.332 597.151 326.267ZM448.826 352.306C450.446 356.106 452.252 359.844 454.183 363.457C460.413 353.054 468.636 343.46 475.177 333.431C466.331 339.598 457.111 345.391 448.826 352.306ZM700.686 312.686C671.096 347.634 636.023 377.847 608.053 414.228C632.223 393.359 656.705 372.926 681.374 352.618C689.535 346.388 696.761 337.854 707.102 336.047C707.754 335.863 708.421 335.738 709.096 335.673C710.203 326.243 708.398 316.701 703.925 308.326C702.866 309.821 701.745 311.627 700.686 312.686ZM476.796 396.224C483.711 404.447 491.249 412.297 498.974 419.897C498.944 419.42 498.944 418.941 498.974 418.464C506.262 397.782 521.338 380.152 532.8 361.464C514.049 372.739 496.669 387.316 476.796 396.224ZM520.839 441.389L539.528 461.012C542.518 455.841 546.131 450.92 548.997 445.749C561.155 425.539 574.531 406.088 589.053 387.503C567.499 406.005 548.872 432.792 520.839 441.389ZM638.702 471.29C641.403 468.485 644.869 466.536 648.669 465.684C656.705 454.408 664.306 442.759 671.283 430.798C660.319 444.254 649.355 457.648 638.702 471.29ZM574.849 482.254C571.984 484.31 569.243 486.615 566.315 488.484L578.4 500.943C591.731 482.254 605.125 463.192 619.453 444.877C604.689 457.835 590.049 470.356 574.849 482.254ZM1110.59 62.0099C1074.89 89.0461 1037.52 113.84 1001.88 141C937.844 190.338 878.352 244.722 816.057 296.427C792.634 316.985 769.709 338.165 746.411 358.723C781.857 386.133 813.191 418.464 844.837 450.172C888.569 494.277 933.899 536.701 980.828 577.442C1024.06 617.248 1072.03 652.196 1113.77 693.56C1115.07 647.212 1114.83 600.927 1116.26 554.642C1118.06 434.1 1112.27 315.49 1114.76 195.197C1114.76 157.82 1115.82 120.443 1118.25 82.6297C1119 73.4723 1119.06 63.9411 1119.37 54.9082C1116.29 57.123 1113.31 59.4933 1110.46 62.0099H1110.59ZM31.447 86.5543C30.0765 244.224 46.9585 400.398 43.2208 557.383C42.9093 590.897 42.2864 624.35 42.7847 657.803C42.7847 678.796 42.7847 699.727 41.5388 720.659C64.152 697.921 88.0734 675.183 109.628 653.691C190.612 572.707 275.271 494.713 357.812 414.913C375.94 397.782 393.944 380.651 410.95 362.523C362.111 324.086 310.281 288.765 262.189 249.332C184.071 185.168 112.119 113.528 31.8207 52.4787C31.447 63.8788 31.1355 75.2165 31.447 86.5543ZM386.53 430.487C309.658 503.871 232.827 577.359 156.038 650.95C126.074 681.226 93.0571 713.246 63.1553 742.524C68.8865 741.777 74.6176 741.092 80.3488 740.469C163.949 731.685 247.986 727.137 331.897 722.278C503.023 714.429 674.522 711.065 845.46 713.183C895.733 713.183 946.005 713.682 996.091 717.918C1034.09 721.344 1071.53 728.944 1109.34 733.99C1091.59 714.196 1072.18 695.941 1051.35 679.419C1013.97 647.337 976.094 615.255 939.215 582.363C881.156 531.779 827.644 476.461 772.513 422.7C758.247 409.182 743.545 396.162 728.096 384.077C711.775 429.428 682.371 472.536 655.273 508.668C641.692 523.182 619.951 558.504 598.335 558.504C597.381 558.565 596.423 558.565 595.469 558.504C580.83 553.271 571.922 537.697 560.708 527.855C539.279 505.802 518.098 483.438 496.856 461.136C472.872 438.523 448.514 414.602 431.321 386.382C416.931 401.52 401.855 416.097 386.593 430.487H386.53ZM28.2699 779.964C24.0128 779.95 19.9352 778.247 16.9321 775.229C15.626 774.038 14.5123 772.651 13.6305 771.118C1.17142 764.452 8.1485 745.826 9.26982 733.741C14.0043 686.147 10.3288 638.18 11.7616 590.461C13.0698 513.776 12.9452 436.903 8.77146 360.405C4.1616 244.473 -4.55975 128.23 2.91569 12.6097C3.40982 10.1881 4.46654 7.9166 6.00051 5.97872C7.53448 4.04085 9.50269 2.49089 11.7462 1.45403C13.9897 0.41716 16.4456 -0.0775456 18.9156 0.00986013C21.3856 0.0972658 23.8004 0.764333 25.965 1.95719C32.1669 1.12732 38.4517 1.12732 44.6536 1.95719L68.7619 3.2031C159.962 8.37361 250.976 17.4064 342.612 16.5966C521.026 16.5966 699.378 16.5966 877.792 18.0917C896.044 18.0917 914.421 18.0917 932.736 18.4032C998.956 18.9638 1065.3 19.5245 1131.27 12.1736C1135.19 11.6997 1139.15 12.6504 1142.42 14.8523C1144.68 15.4979 1146.75 16.6871 1148.44 18.316C1150.14 19.9449 1151.41 21.9639 1152.14 24.1966C1153.09 26.874 1153.3 29.7558 1152.76 32.5442C1149.96 63.6919 1149.9 94.8396 1147.59 125.987C1142.11 292.129 1151.52 457.149 1146.53 622.98C1146.53 654.937 1145.47 686.957 1144.91 718.914C1143.73 732.682 1150.15 755.98 1135.2 761.213C1133.53 763.282 1131.34 764.87 1128.85 765.811C1126.37 766.753 1123.68 767.015 1121.06 766.57C1075.7 761.213 1030.85 751.869 985.313 747.882C927.628 743.77 869.818 743.833 811.945 743.957C786.155 743.957 760.303 743.957 734.512 743.957C682.87 743.957 631.227 743.521 579.584 744.892C426.4 748.879 273.215 754.672 120.467 767.629C93.9915 769.997 67.5783 773.361 41.165 776.6C36.929 776.6 33.5027 779.902 29.2666 779.902L28.2699 779.964Z" fill="#A4020F"/>
</svg>
