<svg width="1177" height="1089" viewBox="0 0 1177 1089" fill="none" xmlns="http://www.w3.org/2000/svg">
<path d="M1138.65 218.827C1148.3 227.174 1146.5 233.341 1139.02 242.499C1129.84 253.855 1119 263.767 1106.88 271.902C1088.81 257.076 1080.65 232.158 1058.91 220.571C1052.8 217.144 1045.85 215.524 1038.85 215.899C1031.86 216.274 1025.12 218.629 1019.41 222.689C1006.95 231.036 993.249 241.377 987.393 255.456C985.3 259.533 984.456 264.136 984.965 268.69C985.475 273.244 987.316 277.547 990.259 281.06C1005.57 302.304 1019.71 324.368 1032.62 347.155C1038.85 357.496 1004.46 376.122 995.803 376.932C957.616 343.542 935.128 293.643 889.901 267.728L889.341 267.292C886.91 264.69 883.554 263.146 879.996 262.994C871.773 262.122 865.855 268.725 860.186 273.584C841.186 290.715 822.373 307.971 804.121 325.663C781.32 347.28 758.583 368.958 737.029 391.883C715.474 414.808 695.727 440.287 672.241 461.841C657.664 475.795 642.153 488.628 628.635 503.329C627.101 505.497 626.13 508.011 625.809 510.647C625.489 513.283 625.829 515.957 626.799 518.428C627.769 520.9 629.339 523.091 631.367 524.805C633.394 526.52 635.816 527.702 638.415 528.248C639.353 528.471 640.316 528.576 641.281 528.559C642.039 529.409 642.747 530.303 643.399 531.238C643.399 556.156 624.71 572.602 602.159 568.615C601.153 566.244 599.573 564.161 597.561 562.554C595.549 560.946 593.169 559.865 590.634 559.408C588.1 558.95 585.492 559.131 583.045 559.934C580.598 560.736 578.389 562.135 576.618 564.005C575.559 565.438 574.438 566.808 573.316 568.241C572.715 568.837 572.192 569.507 571.759 570.235C564.159 579.392 555.749 587.927 547.775 596.772C545.731 598.32 544.095 600.343 543.009 602.666C541.924 604.99 541.421 607.542 541.546 610.104C541.62 612.309 542.185 614.471 543.197 616.432C544.21 618.393 545.646 620.104 547.401 621.441C554.005 646.983 556.434 674.704 562.228 700.743C577.241 792.193 591.569 884.016 539.241 967.305C493.952 1034.34 417.391 1065.48 338.151 1054.71C304.153 1046.68 273.027 1029.44 248.197 1004.87C231.253 986.866 221.971 963.194 215.741 939.584C214.06 932.199 212.75 924.735 211.816 917.22C211.991 912.136 211.53 907.051 210.446 902.082C210.446 898.5 209.145 895.041 206.784 892.347C204.423 889.654 201.164 887.911 197.613 887.443C176.495 882.023 154.38 879.718 134.446 870.436C105.572 855.682 80.4182 834.575 60.8747 808.701C-10.0174 710.212 55.2059 583.815 160.547 544.133C203.095 528.559 249.069 533.293 293.236 537.467C343.073 541.205 392.909 543.697 442.745 546.562C460.873 547.871 478.939 549.615 497.129 550.425C501.232 550.738 505.295 549.434 508.45 546.792C511.604 544.149 513.6 540.378 514.011 536.284C514.073 535.433 514.073 534.58 514.011 533.73C517.313 529.493 520.614 525.133 523.978 520.897C527.039 520.251 529.847 518.73 532.059 516.518C534.271 514.306 535.792 511.499 536.437 508.438C537.004 505.308 536.583 502.079 535.233 499.199C533.882 496.319 531.669 493.931 528.9 492.365C525.468 484.358 524.781 475.44 526.944 467.001C529.107 458.562 534 451.076 540.86 445.706C552.447 438.044 561.169 439.041 567.897 450.129C568.498 453.129 569.943 455.895 572.061 458.102C574.18 460.309 576.885 461.865 579.857 462.588C580.954 462.886 582.085 463.033 583.221 463.024C585.873 462.979 588.472 462.279 590.787 460.985C593.103 459.692 595.062 457.846 596.49 455.611C615.179 432.5 638.477 413.001 658.225 390.513C699.215 346.906 737.838 300.558 780.199 258.01C836.265 203.004 889.964 145.879 942.167 87.6948C963.97 66.2652 984.528 36.9864 1016.17 31.0684C1024.32 31.1163 1032.26 33.5856 1039 38.1621C1045.74 42.7387 1050.96 49.2157 1054.01 56.7693C1057.05 64.3229 1057.78 72.6116 1056.1 80.5812C1054.43 88.5507 1050.41 95.8409 1044.58 101.524C1042.73 102.569 1041.1 103.974 1039.81 105.658C1038.51 107.341 1037.56 109.269 1037.02 111.325C1036.48 113.382 1036.36 115.526 1036.66 117.63C1036.96 119.735 1037.69 121.757 1038.79 123.577C1039.82 125.537 1041.29 127.232 1043.08 128.529C1044.87 129.826 1046.94 130.69 1049.13 131.052C1051.56 133.295 1054.14 135.376 1056.85 137.282C1088.19 160.02 1110.99 191.79 1138.65 218.827ZM483.237 924.01C507.657 881.961 510.336 832 503.047 784.904C501.008 756.523 497.368 728.279 492.145 700.307C487.1 677.009 480.559 653.96 476.447 630.474C476.528 628.139 476.147 625.81 475.326 623.622C474.952 621.379 474.64 619.136 474.329 616.894C473.556 612.874 471.238 609.317 467.872 606.988C464.506 604.658 460.36 603.741 456.326 604.435C454.146 604.811 452.075 605.658 450.257 606.916C448.438 608.175 446.917 609.816 445.798 611.723C439.07 611.743 432.355 611.138 425.739 609.917C369.673 603.687 313.607 592.723 256.42 592.1C193.128 589.422 107.16 615.15 105.914 691.711C106.6 724.291 115.695 759.675 140.114 782.662C172.882 811.567 214.869 826.269 256.794 836.672C258.102 849.131 260.158 861.59 262.525 874.049C274.049 923.885 310.368 972.974 361.761 985.495C368.768 987.392 375.994 988.355 383.253 988.361C424.306 988.299 463.116 958.646 483.237 924.01Z" fill="#F0BCD8"/>
<path d="M160.05 544.071C55.0197 583.816 -10.2035 710.4 60.6886 808.702C80.232 834.575 105.386 855.682 134.259 870.437C154.194 879.719 176.309 882.024 197.427 887.381C200.978 887.887 204.231 889.648 206.596 892.344C208.962 895.041 210.283 898.496 210.322 902.083C211.42 907.051 211.922 912.133 211.817 917.221C212.809 924.719 214.181 932.163 215.929 939.522C222.158 963.132 231.44 986.804 248.447 1004.81C273.244 1029.39 304.354 1046.64 338.339 1054.64C417.828 1065.55 494.077 1034.58 538.681 966.932C591.009 883.643 576.681 791.82 561.668 700.37C555.937 674.393 553.445 646.61 546.904 621.131C545.088 619.809 543.587 618.101 542.51 616.13C541.433 614.159 540.806 611.973 540.674 609.731C540.56 607.171 541.068 604.622 542.152 602.3C543.237 599.979 544.867 597.954 546.904 596.399C554.753 587.678 563.101 579.331 570.576 570.298C571.184 569.26 571.94 568.316 572.819 567.494L575.809 563.57C577.586 561.701 579.8 560.303 582.251 559.501C584.702 558.7 587.314 558.519 589.853 558.976C592.391 559.433 594.776 560.513 596.793 562.12C598.811 563.726 600.398 565.808 601.412 568.18C624.15 572.353 642.776 555.721 642.652 530.802C641.975 529.89 641.247 529.017 640.471 528.186L637.606 527.812C635.007 527.267 632.585 526.084 630.557 524.37C628.53 522.656 626.96 520.465 625.99 517.993C625.02 515.521 624.68 512.847 625 510.212C625.321 507.576 626.292 505.061 627.825 502.894C641.593 488.192 657.104 475.36 671.432 461.405C694.918 439.851 714.665 414.809 736.219 391.448C757.774 368.087 780.511 346.844 803.312 325.228C822 307.536 840.689 290.28 859.377 273.211C865.046 268.29 870.964 261.687 879.187 262.559C882.68 262.723 885.979 264.216 888.407 266.732L889.092 267.231C934.506 293.146 956.932 343.044 994.994 376.497C1003.65 375.687 1037.73 357.061 1031.81 346.72C1019.25 324.098 1005.46 302.179 990.509 281.06C987.565 277.591 985.7 273.335 985.147 268.818C984.593 264.302 985.375 259.722 987.394 255.644C993.25 241.254 1006.89 231.224 1019.41 222.877C1025.12 218.816 1031.86 216.462 1038.85 216.086C1045.85 215.711 1052.8 217.332 1058.91 220.758C1080.65 232.345 1088.81 257.264 1106.94 272.028C1119.04 263.882 1129.87 253.995 1139.08 242.686C1146.56 233.467 1148.3 227.362 1138.65 219.014C1110.99 191.978 1088.25 160.207 1056.85 137.345C1054.16 135.425 1051.58 133.345 1049.13 131.115C1046.99 130.795 1044.94 130.002 1043.14 128.796C1041.34 127.589 1039.84 125.999 1038.73 124.138C1037.63 122.318 1036.9 120.296 1036.6 118.192C1036.3 116.087 1036.42 113.943 1036.96 111.887C1037.5 109.83 1038.45 107.903 1039.74 106.219C1041.04 104.536 1042.67 103.13 1044.52 102.086C1050.44 96.4208 1054.52 89.1153 1056.25 81.1088C1057.98 73.1023 1057.28 64.761 1054.23 57.1577C1051.19 49.5544 1045.93 43.0368 1039.15 38.4432C1032.37 33.8495 1024.37 31.3899 1016.17 31.3806C984.466 37.2987 963.909 66.5775 942.106 88.0071C889.777 146.316 836.203 203.316 780.138 258.323C737.839 300.87 699.154 346.907 658.163 390.825C638.416 413.313 615.366 432.812 596.429 455.986L597.238 454.678C597.379 454.313 597.545 453.959 597.737 453.619C596.457 456.375 594.43 458.717 591.887 460.379C589.343 462.042 586.385 462.959 583.347 463.025C582.211 463.034 581.079 462.887 579.983 462.589C577.021 461.856 574.33 460.295 572.223 458.088C570.116 455.882 568.681 453.122 568.084 450.13C561.356 439.041 552.635 437.671 540.986 445.645C534.09 451.001 529.164 458.492 526.977 466.945C524.791 475.398 525.467 484.338 528.9 492.366C531.601 494.065 533.709 496.557 534.936 499.502C536.163 502.447 536.448 505.699 535.753 508.812C535.055 511.803 533.507 514.529 531.297 516.662C529.087 518.795 526.308 520.244 523.294 520.835L513.327 533.73C513.389 534.581 513.389 535.434 513.327 536.284C512.916 540.379 510.92 544.15 507.765 546.793C504.611 549.435 500.548 550.739 496.445 550.426C478.254 549.616 460.189 547.871 442.061 546.501C392.224 543.76 342.388 541.206 292.552 537.406C271.558 535.475 250.191 533.357 229.011 533.357C205.575 532.884 182.237 536.51 160.05 544.071ZM336.844 1086.04C288.44 1076.39 240.473 1049.41 211.817 1008.79C193.88 980.925 183.174 949.023 180.669 915.975C151.045 911.461 122.66 900.924 97.2673 885.013C71.8742 869.102 50.0117 848.155 33.0294 823.466C-39.5447 721.426 15.213 580.514 122.112 527.812C194.312 485.202 279.968 508.563 358.834 510.556C399.887 513.484 441.064 514.668 481.992 518.468H485.667C488.658 514.481 491.897 510.806 494.887 506.819C496.133 505.012 497.441 503.143 498.936 501.274C493.567 486.625 493.171 470.616 497.81 455.719C502.449 440.822 511.865 427.868 524.602 418.858C545.16 405.34 568.707 406.399 584.842 421.35C600.229 404.281 618.232 389.205 633.183 371.513C676.79 325.103 717.344 276.264 762.383 231.473C829.912 167.558 889.03 95.3579 955.499 30.3216C971.198 15.433 990.26 2.66245 1012.19 0.170636C1072.37 -3.81627 1108.31 62.9021 1076.29 112.302C1092.51 124.923 1107.44 139.135 1120.83 154.725C1138.09 175.283 1160.82 192.103 1174.28 215.214C1181.38 232.283 1173.28 251.159 1161.82 264.116C1147.18 279.565 1124.44 307.038 1101.27 304.11C1085.32 297.88 1073.98 283.428 1064.33 269.972C1057.17 261.687 1051.5 248.667 1039.41 247.047C1030.98 251.875 1023.5 258.21 1017.36 265.736C1029.38 282.742 1040.59 300.434 1051.93 317.877C1065.39 336.005 1071.56 362.605 1051.93 378.989C1036.86 392.008 1017.11 408.268 996.302 408.268C992.201 408.287 988.122 407.656 984.217 406.399C941.607 380.359 923.106 327.533 881.243 299.936C879.876 300.252 878.468 300.357 877.069 300.247L869.469 307.287C823.495 349.71 778.954 390.14 738.213 437.235C716.636 462.227 693.366 485.706 668.567 507.504C667.431 508.282 666.349 509.135 665.327 510.058L668.94 514.855C671.414 519.198 673.007 523.987 673.627 528.947C674.247 533.907 673.882 538.941 672.554 543.76C669.003 574.471 641.406 600.573 611.006 600.573C607.409 600.557 603.821 600.203 600.291 599.514C596.678 598.704 592.691 598.144 588.766 597.334C584.655 601.819 580.481 606.118 576.307 610.665L575.747 611.164C577.242 616.521 578.55 622.003 579.733 627.423C592.193 704.669 611.878 782.6 605.15 861.279C592.691 993.096 498.189 1088.35 369.549 1088.35C358.607 1088.23 347.683 1087.41 336.844 1085.92V1086.04Z" fill="#A4020F"/>
<path d="M285.512 814.87C287.083 822.103 288.001 829.463 288.253 836.86C290.807 893.487 332.732 966.746 397.706 955.595C440.316 942.762 466.792 902.021 473.395 859.536C476.236 837.936 476.047 816.046 472.834 794.499C469.408 761.109 466.605 724.043 458.818 692.397C454.644 676.138 450.595 659.817 447.418 643.308C428.168 641.066 408.857 639.322 389.67 636.643C335.784 629.167 281.276 619.885 226.705 624.184C188.269 627.485 138.37 645.551 137.187 690.84C137.187 722.424 149.023 756.25 178.053 771.824C205.098 788.209 234.839 799.663 265.889 805.65C267.507 805.174 269.187 804.943 270.873 804.965C274.039 804.893 277.149 805.808 279.772 807.582C282.395 809.357 284.401 811.904 285.512 814.87ZM361.886 985.434C310.492 972.975 274.174 923.762 262.65 873.988C260.282 861.529 258.227 849.07 256.856 836.611C215.181 826.083 173.007 811.693 140.239 782.601C115.882 759.552 106.724 724.105 105.915 691.712C107.223 615.151 193.128 589.423 256.732 592.039C313.607 592.662 369.611 603.315 425.988 609.856C432.586 611.067 439.277 611.692 445.985 611.725C447.117 609.821 448.652 608.189 450.481 606.94C452.31 605.692 454.39 604.859 456.575 604.498C460.615 603.82 464.76 604.741 468.133 607.067C471.505 609.393 473.839 612.94 474.641 616.957C474.89 619.2 475.201 621.443 475.575 623.685C476.394 625.897 476.795 628.242 476.759 630.6C480.87 654.086 487.349 677.072 492.457 700.371C497.586 728.41 501.122 756.716 503.047 785.155C510.336 832.25 507.657 882.211 483.238 924.26C463.178 958.897 424.306 988.487 383.565 988.487C376.235 988.437 368.945 987.411 361.886 985.434Z" fill="#A4020F"/>
</svg>
